<mxfile host="app.diagrams.net" modified="2022-03-22T01:35:13.918Z" agent="5.0 (Windows NT 10.0; Win64; x64) AppleWebKit/537.36 (KHTML, like Gecko) Chrome/96.0.4664.45 Safari/537.36" etag="vKj3An3U9l5EmzP_cMA5" version="16.5.6" type="github">
  <diagram id="1Ly_ykDq4DCkkl1BJXWj" name="第 1 页">
    <mxGraphModel dx="1662" dy="762" grid="1" gridSize="10" guides="1" tooltips="1" connect="1" arrows="1" fold="1" page="1" pageScale="1" pageWidth="827" pageHeight="1169" math="0" shadow="0">
      <root>
        <mxCell id="0" />
        <mxCell id="1" parent="0" />
        <mxCell id="SpTdvMsM4vrl7f9LALOI-3" value="" style="edgeStyle=orthogonalEdgeStyle;rounded=0;orthogonalLoop=1;jettySize=auto;html=1;" edge="1" parent="1" source="SpTdvMsM4vrl7f9LALOI-1" target="SpTdvMsM4vrl7f9LALOI-2">
          <mxGeometry relative="1" as="geometry" />
        </mxCell>
        <mxCell id="SpTdvMsM4vrl7f9LALOI-1" value="入口&lt;br&gt;@SpringBootApplication" style="rounded=0;whiteSpace=wrap;html=1;" vertex="1" parent="1">
          <mxGeometry x="50" y="50" width="160" height="60" as="geometry" />
        </mxCell>
        <mxCell id="SpTdvMsM4vrl7f9LALOI-5" value="" style="edgeStyle=orthogonalEdgeStyle;rounded=0;orthogonalLoop=1;jettySize=auto;html=1;" edge="1" parent="1" source="SpTdvMsM4vrl7f9LALOI-2" target="SpTdvMsM4vrl7f9LALOI-4">
          <mxGeometry relative="1" as="geometry" />
        </mxCell>
        <mxCell id="SpTdvMsM4vrl7f9LALOI-2" value="@EnableAutoConfiguration&lt;br&gt;启动自动配置，会自动扫描所有自动配置类，扫描到并且满足条件才会生效" style="whiteSpace=wrap;html=1;rounded=0;" vertex="1" parent="1">
          <mxGeometry y="190" width="260" height="90" as="geometry" />
        </mxCell>
        <mxCell id="SpTdvMsM4vrl7f9LALOI-4" value="@Import(AutoConfigurationImportSelector.class)" style="whiteSpace=wrap;html=1;rounded=0;" vertex="1" parent="1">
          <mxGeometry x="340" y="205" width="290" height="60" as="geometry" />
        </mxCell>
      </root>
    </mxGraphModel>
  </diagram>
</mxfile>
